<svg width="24" height="24" viewBox="0 0 24 24" fill="none" xmlns="http://www.w3.org/2000/svg">
<path d="M13 9H11V7H13V9Z" fill="#60C28A"/>
<path d="M14 17H11V13H10V11H13V15H14V17Z" fill="#60C28A"/>
<path fill-rule="evenodd" clip-rule="evenodd" d="M12 22C6.47715 22 2 17.5228 2 12C2 6.47715 6.47715 2 12 2C17.5228 2 22 6.47715 22 12C21.9939 17.5203 17.5203 21.9939 12 22ZM12.0425 20.086C7.64111 20.1095 4.04732 16.5732 4 12.172V12C4.04732 7.59876 7.64111 4.06246 12.0425 4.086C16.444 4.10977 19.9995 7.68451 19.9995 12.086C19.9995 16.4875 16.444 20.0622 12.0425 20.086Z" fill="white"/>
</svg>
