<svg width="24" height="24" viewBox="0 0 24 24" fill="none" xmlns="http://www.w3.org/2000/svg">
<path d="M11.625 11.25C11.0033 11.25 10.5 11.7533 10.5 12.375C10.5 12.9967 11.0033 13.5 11.625 13.5C12.2467 13.5 12.75 12.9967 12.75 12.375C12.75 11.7533 12.2467 11.25 11.625 11.25Z" fill="#60C28A"/>
<path d="M15.75 17.0859L13.8047 15.1406L13.2656 14.625L11.1562 16.7344L7.94531 13.5L7.42969 12.9609L3 17.3906V19.5234L7.42822 15.0938L11.1782 18.8438L11.6953 18.3047L13.2656 16.7344L15.75 19.2188V17.0859Z" fill="#60C28A"/>
<path fill-rule="evenodd" clip-rule="evenodd" d="M1.5 8.25V21.75H17.25V8.25H1.5ZM3 9.75H15.75V17.0859V19.2188V20.25H3V19.5234V17.3906V9.75Z" fill="white"/>
<path d="M18.75 5.25V6.75H20.25V5.25H18.75Z" fill="white"/>
<path d="M18.75 8.25V9.75H20.25V8.25H18.75Z" fill="white"/>
<path d="M10.5 5.25V6.75H12V5.25H10.5Z" fill="white"/>
<path fill-rule="evenodd" clip-rule="evenodd" d="M7.5 1.5V6.75H9V3H10.5H12H18.75H20.25H21.75V12H20.25V11.25H18.75V13.5H23.25V1.5H7.5Z" fill="#60C28A"/>
<path d="M10.5 3V3.75H12V3H10.5Z" fill="white"/>
<path d="M18.75 3V3.75H20.25V3H18.75Z" fill="white"/>
</svg>
