<svg width="44" height="44" viewBox="0 0 44 44" fill="none" xmlns="http://www.w3.org/2000/svg">
<path d="M21.3125 20.625C20.1726 20.625 19.25 21.5476 19.25 22.6875C19.25 23.8274 20.1726 24.75 21.3125 24.75C22.4524 24.75 23.375 23.8274 23.375 22.6875C23.375 21.5476 22.4524 20.625 21.3125 20.625Z" fill="#60C28A"/>
<path d="M28.875 31.3242L25.3086 27.7578L24.3203 26.8125L20.4531 30.6797L14.5664 24.75L13.6211 23.7617L5.5 31.8828V35.793L13.6184 27.6719L20.4934 34.5469L21.4414 33.5586L24.3203 30.6797L28.875 35.2344V31.3242Z" fill="#60C28A"/>
<path fill-rule="evenodd" clip-rule="evenodd" d="M2.75 15.125V39.875H31.625V15.125H2.75ZM5.5 17.875H28.875V31.3242V35.2344V37.125H5.5V35.793V31.8828V17.875Z" fill="white"/>
<path d="M34.375 9.625V12.375H37.125V9.625H34.375Z" fill="white"/>
<path d="M34.375 15.125V17.875H37.125V15.125H34.375Z" fill="white"/>
<path d="M19.25 9.625V12.375H22V9.625H19.25Z" fill="white"/>
<path fill-rule="evenodd" clip-rule="evenodd" d="M13.75 2.75V12.375H16.5V5.5H19.25H22H34.375H37.125H39.875V22H37.125V20.625H34.375V24.75H42.625V2.75H13.75Z" fill="#60C28A"/>
<path d="M19.25 5.5V6.875H22V5.5H19.25Z" fill="white"/>
<path d="M34.375 5.5V6.875H37.125V5.5H34.375Z" fill="white"/>
</svg>
